A young man who survives a disaster at sea is hurtled into an epic journey of adventure and discovery. While cast away, he forms an unexpected connection with another survivor ... a fearsome Bengal tiger. 
 
http://www.imdb.com/title/tt0454876/


[cast]

[IMG]http://i.imgur.com/qUZcn.png[/IMG]



Life of Pi (2012)


General
Complete name: Life of Pi 2012 DVDSCR.m4v
Format: MPEG-4
Format profile: Base Media / Version 2
Codec ID: mp42
File size: 1.25 GiB
Duration: 2h 6mn
Overall bit rate mode: Variable
Overall bit rate: 1 405 Kbps
Encoded date: UTC 2012-12-28 07:42:54
Tagged date: UTC 2012-12-28 08:06:09
Writing application: HandBrake 0.9.8 2012071800

Video
ID: 1
Format: AVC
Format/Info: Advanced Video Codec
Format profile: Main@L3.0
Format settings, CABAC: Yes
Format settings, ReFrames: 4 frames
Codec ID: avc1
Codec ID/Info: Advanced Video Coding
Duration: 2h 6mn
Bit rate mode: Variable
Bit rate: 1 234 Kbps
Width: 720 pixels
Height: 400 pixels
Display aspect ratio: 16:9
Frame rate mode: Variable
Frame rate: 23.976 fps
Minimum frame rate: 19.965 fps
Maximum frame rate: 29.970 fps
Color space: YUV
Chroma subsampling: 4:2:0
Bit depth: 8 bits
Scan type: Progressive
Bits/(Pixel*Frame): 0.179
Stream size: 1.09 GiB (88%)
Writing library: x264 core 120
Encoding settings: cabac=1 / ref=1 / deblock=1:0:0 / analyse=0x1:0x111 / me=hex / subme=2 / psy=1 / psy_rd=1.00:0.00 / mixed_ref=0 / me_range=16 / chroma_me=1 / trellis=0 / 8x8dct=0 / cqm=0 / deadzone=21,11 / fast_pskip=1 / chroma_qp_offset=0 / threads=6 / sliced_threads=0 / nr=0 / decimate=1 / interlaced=0 / bluray_compat=0 / constrained_intra=0 / bframes=3 / b_pyramid=2 / b_adapt=1 / b_bias=0 / direct=1 / weightb=1 / open_gop=0 / weightp=1 / keyint=240 / keyint_min=24 / scenecut=40 / intra_refresh=0 / rc_lookahead=10 / rc=crf / mbtree=1 / crf=20.0 / qcomp=0.60 / qpmin=3 / qpmax=69 / qpstep=4 / ip_ratio=1.40 / aq=1:1.00
Encoded date: UTC 2012-12-28 07:42:54
Tagged date: UTC 2012-12-28 08:06:09
Color primaries: BT.601-6 525, BT.1358 525, BT.1700 NTSC, SMPTE 170M
Transfer characteristics: BT.709-5, BT.1361
Matrix coefficients: BT.601-6 525, BT.1358 525, BT.1700 NTSC, SMPTE 170M

Audio
ID: 2
Format: AAC
Format/Info: Advanced Audio Codec
Format profile: LC
Codec ID: 40
Duration: 2h 6mn
Bit rate mode: Variable
Bit rate: 164 Kbps
Maximum bit rate: 255 Kbps
Channel(s): 2 channels
Channel positions: Front: L R
Sampling rate: 48.0 KHz
Compression mode: Lossy
Stream size: 149 MiB (12%)
Language: English
Encoded date: UTC 2012-12-28 07:42:54
Tagged date: UTC 2012-12-28 08:06:09

Text
ID: 3
Format: Apple text
Codec ID: text
Duration: 2h 6mn
Bit rate mode: Constant
Bit rate: 0
Stream size: 312 Bytes (0%)
Encoded date: UTC 2012-12-28 07:42:54
Tagged date: UTC 2012-12-28 08:06:09 